<svg version="1.1" viewBox="0.0 0.0 876.0 190.0" fill="none" stroke="none" stroke-linecap="square" stroke-miterlimit="10" xmlns:xlink="http://www.w3.org/1999/xlink" xmlns="http://www.w3.org/2000/svg"><clipPath id="p.0"><path d="m0 0l876.0 0l0 190.0l-876.0 0l0 -190.0z" clip-rule="nonzero"/></clipPath><g clip-path="url(#p.0)"><path fill="#000000" fill-opacity="0.0" d="m0 0l876.0 0l0 190.0l-876.0 0z" fill-rule="evenodd"/><path fill="#000000" fill-opacity="0.0" d="m-8.0 -56.0l926.9921 0l0 136.18898l-926.9921 0z" fill-rule="evenodd"/><path fill="#000000" d="m95.140625 141.47124q-6.359375 1.453125 -12.828125 2.3125q-6.453125 0.875 -12.234375 0.875q-9.625 0 -16.609375 -2.03125q-6.984375 -2.015625 -11.5625 -6.15625q-4.578125 -4.140625 -6.75 -10.546875q-2.171875 -6.421875 -2.171875 -15.28125l0 -47.796875l-26.296875 0l0 -18.296875l26.296875 0l0 -25.046875l24.09375 -6.265625l0 31.3125l38.0625 0l0 18.296875l-38.0625 0l0 46.0625q0 8.390625 3.84375 12.671875q3.859375 4.28125 12.921875 4.28125q5.78125 0 11.265625 -0.953125q5.5 -0.96875 10.03125 -2.21875l0 18.78125zm89.11693 0.96875l-0.578125 -12.8125q-3.078125 3.28125 -6.453125 6.03125q-3.375 2.734375 -7.421875 4.765625q-4.046875 2.015625 -8.8125 3.125q-4.765625 1.109375 -10.453125 1.109375q-7.515625 0 -13.203125 -2.21875q-5.6875 -2.21875 -9.546875 -6.15625q-3.84375 -3.953125 -5.828125 -9.546875q-1.96875 -5.59375 -1.96875 -12.328125q0 -6.9375 2.9375 -12.8125q2.9375 -5.890625 8.953125 -10.125q6.03125 -4.234375 15.03125 -6.640625q9.015625 -2.421875 21.15625 -2.421875l12.8125 0l0 -5.875q0 -3.75 -1.0625 -6.78125q-1.046875 -3.046875 -3.40625 -5.15625q-2.359375 -2.125 -6.125 -3.28125q-3.75 -1.15625 -9.25 -1.15625q-8.671875 0 -17.109375 1.984375q-8.421875 1.96875 -16.328125 5.53125l0 -18.796875q7.03125 -2.796875 16.234375 -4.625q9.203125 -1.828125 19.125 -1.828125q10.890625 0 18.6875 2.078125q7.8125 2.0625 12.875 6.21875q5.0625 4.140625 7.46875 10.359375q2.40625 6.203125 2.40625 14.484375l0 66.875l-20.140625 0zm-3.375 -43.265625l-14.34375 0q-5.984375 0 -10.125 1.15625q-4.140625 1.15625 -6.75 3.1875q-2.59375 2.015625 -3.796875 4.671875q-1.203125 2.640625 -1.203125 5.640625q0 5.96875 3.84375 9.109375q3.859375 3.125 10.515625 3.125q4.90625 0 10.203125 -3.5625q5.296875 -3.578125 11.65625 -10.21875l0 -13.109375zm108.88255 43.265625l0 -63.78125q0 -16.09375 -11.953125 -16.09375q-5.96875 0 -11.421875 4.828125q-5.4375 4.8125 -11.5 13.09375l0 61.953125l-23.515625 0l0 -136.14062l23.515625 0l0 33.53125l-1.15625 17.71875q2.984375 -3.5625 6.0625 -6.40625q3.09375 -2.84375 6.65625 -4.765625q3.5625 -1.921875 7.703125 -2.9375q4.140625 -1.015625 9.15625 -1.015625q7.515625 0 13.09375 2.46875q5.59375 2.453125 9.34375 6.9375q3.765625 4.46875 5.640625 10.78125q1.890625 6.3125 1.890625 14.109375l0 65.71875l-23.515625 0zm107.72629 -124.671875q0 3.171875 -1.15625 5.96875q-1.15625 2.796875 -3.234375 4.875q-2.0625 2.0625 -4.859375 3.265625q-2.796875 1.203125 -6.078125 1.203125q-3.265625 0 -6.109375 -1.203125q-2.84375 -1.203125 -4.921875 -3.265625q-2.0625 -2.078125 -3.21875 -4.875q-1.15625 -2.796875 -1.15625 -5.96875q0 -3.1875 1.15625 -5.984375q1.15625 -2.796875 3.21875 -4.90625q2.078125 -2.125 4.921875 -3.328125q2.84375 -1.203125 6.109375 -1.203125q3.28125 0 6.078125 1.203125q2.796875 1.203125 4.859375 3.328125q2.078125 2.109375 3.234375 4.90625q1.15625 2.796875 1.15625 5.984375zm-26.015625 45.078125l-27.65625 0l0 -18.296875l51.734375 0l0 79.578125l28.234375 0l0 18.3125l-83.34375 0l0 -18.3125l31.03125 0l0 -61.28125zm139.8982 19.765625q0.1875 -5.5 -0.53125 -9.34375q-0.71875 -3.859375 -2.3125 -6.359375q-1.59375 -2.515625 -3.90625 -3.671875q-2.3125 -1.15625 -5.296875 -1.15625q-5.203125 0 -10.75 4.296875q-5.53125 4.28125 -12.171875 14.109375l0 61.953125l-24.09375 0l0 -97.890625l21.296875 0l0.859375 14.25q2.40625 -3.75 5.4375 -6.734375q3.046875 -2.984375 6.75 -5.15625q3.71875 -2.171875 8.234375 -3.328125q4.53125 -1.15625 9.9375 -1.15625q7.421875 0 13.140625 2.5625q5.734375 2.546875 9.640625 7.5625q3.90625 5.0 5.78125 12.5625q1.875 7.5625 1.59375 17.5l-23.609375 0zm124.67944 56.078125q-6.9375 2.78125 -14.359375 4.125q-7.421875 1.359375 -15.515625 1.359375q-11.65625 0 -20.90625 -3.171875q-9.25 -3.1875 -15.703125 -9.453125q-6.453125 -6.265625 -9.875 -15.515625q-3.421875 -9.25 -3.421875 -21.390625q0 -11.75 3.703125 -21.28125q3.71875 -9.546875 10.453125 -16.28125q6.75 -6.75 16.234375 -10.40625q9.5 -3.671875 21.15625 -3.671875q9.546875 0 16.046875 1.015625q6.5 1.015625 11.703125 2.546875l0 22.84375q-5.96875 -2.984375 -12.953125 -4.625q-6.984375 -1.640625 -13.25 -1.640625q-6.546875 0 -11.75 2.21875q-5.203125 2.21875 -8.78125 6.171875q-3.5625 3.9375 -5.4375 9.578125q-1.875 5.640625 -1.875 12.375q0 7.046875 2.015625 12.640625q2.03125 5.578125 5.734375 9.484375q3.71875 3.890625 8.921875 5.96875q5.203125 2.078125 11.5625 2.078125q3.078125 0 6.5 -0.4375q3.421875 -0.4375 6.84375 -1.25q3.421875 -0.828125 6.734375 -1.875q3.328125 -1.0625 6.21875 -2.328125l0 20.921875zm117.35132 -46.9375q0 13.5 -3.8125 23.328125q-3.796875 9.828125 -10.59375 16.328125q-6.78125 6.5 -16.03125 9.640625q-9.25 3.125 -20.140625 3.125q-3.65625 0 -7.328125 -0.484375q-3.65625 -0.484375 -6.640625 -1.25l0 38.25l-23.515625 0l0 -136.14062l20.328125 0l0.578125 14.453125q2.984375 -3.765625 6.21875 -6.84375q3.234375 -3.078125 6.984375 -5.25q3.765625 -2.171875 8.09375 -3.328125q4.34375 -1.15625 9.734375 -1.15625q8.671875 0 15.40625 3.46875q6.75 3.46875 11.328125 9.875q4.578125 6.40625 6.984375 15.515625q2.40625 9.109375 2.40625 20.46875zm-24.65625 0.96875q0 -8.09375 -1.15625 -13.78125q-1.15625 -5.6875 -3.328125 -9.34375q-2.171875 -3.65625 -5.3125 -5.34375q-3.125 -1.6875 -7.171875 -1.6875q-5.96875 0 -11.421875 4.828125q-5.4375 4.8125 -11.5 13.09375l0 42.78125q2.796875 1.0625 6.890625 1.734375q4.09375 0.671875 8.328125 0.671875q5.59375 0 10.171875 -2.3125q4.578125 -2.3125 7.796875 -6.546875q3.234375 -4.25 4.96875 -10.359375q1.734375 -6.125 1.734375 -13.734375zm130.36694 -6.75q0 2.421875 -0.15625 6.28125q-0.140625 3.84375 -0.421875 7.21875l-64.375 0q0 6.453125 1.96875 11.375q1.984375 4.90625 5.59375 8.234375q3.625 3.3125 8.671875 5.046875q5.0625 1.734375 11.234375 1.734375q7.125 0 15.265625 -1.09375q8.140625 -1.109375 16.90625 -3.625l0 18.703125q-3.75 1.046875 -8.1875 1.921875q-4.421875 0.859375 -9.046875 1.53125q-4.625 0.6875 -9.359375 1.015625q-4.71875 0.34375 -9.140625 0.34375q-11.1875 0 -20.046875 -3.171875q-8.859375 -3.1875 -15.03125 -9.40625q-6.171875 -6.21875 -9.453125 -15.359375q-3.265625 -9.15625 -3.265625 -21.203125q0 -11.953125 3.265625 -21.734375q3.28125 -9.78125 9.25 -16.765625q5.984375 -6.984375 14.5 -10.78125q8.53125 -3.8125 19.046875 -3.8125q10.40625 0 18.390625 3.234375q8.0 3.21875 13.390625 9.0q5.40625 5.78125 8.203125 13.78125q2.796875 8.0 2.796875 17.53125zm-23.90625 -3.359375q0.09375 -5.78125 -1.453125 -10.0625q-1.53125 -4.296875 -4.1875 -7.09375q-2.640625 -2.796875 -6.15625 -4.140625q-3.515625 -1.359375 -7.5625 -1.359375q-8.875 0 -14.5625 5.9375q-5.671875 5.921875 -6.734375 16.71875l40.65625 0z" fill-rule="nonzero"/></g></svg>