<svg version="1.1" viewBox="0.0 0.0 876.0 208.0" fill="none" stroke="none" stroke-linecap="square" stroke-miterlimit="10" xmlns:xlink="http://www.w3.org/1999/xlink" xmlns="http://www.w3.org/2000/svg"><clipPath id="p.0"><path d="m0 0l876.0 0l0 208.0l-876.0 0l0 -208.0z" clip-rule="nonzero"/></clipPath><g clip-path="url(#p.0)"><path fill="#000000" fill-opacity="0.0" d="m0 0l876.0 0l0 208.0l-876.0 0z" fill-rule="evenodd"/><path fill="#000000" fill-opacity="0.0" d="m-8.0 -40.0l926.9921 0l0 136.18898l-926.9921 0z" fill-rule="evenodd"/><path fill="#000000" d="m64.734375 138.70561q3.546875 0 6.015625 2.765625q2.46875 2.765625 2.46875 7.109375q0 4.328125 -3.265625 7.09375q-3.25 2.765625 -8.375 2.765625l-3.546875 0q-9.671875 0 -17.671875 -5.03125q-7.984375 -5.03125 -12.53125 -13.703125q-4.53125 -8.6875 -4.53125 -19.546875l0 -48.734375l-9.078125 0q-4.140625 0 -6.703125 -2.359375q-2.5625 -2.375 -2.5625 -5.9375q0 -3.9375 2.5625 -6.296875q2.5625 -2.375 6.703125 -2.375l9.078125 0l0 -28.421875q0 -4.34375 2.765625 -7.109375q2.765625 -2.765625 7.109375 -2.765625q4.328125 0 7.09375 2.765625q2.765625 2.765625 2.765625 7.109375l0 28.421875l16.765625 0q4.15625 0 6.71875 2.375q2.5625 2.359375 2.5625 6.296875q0 3.5625 -2.5625 5.9375q-2.5625 2.359375 -6.71875 2.359375l-16.765625 0l0 48.734375q0 7.890625 4.34375 13.21875q4.34375 5.328125 10.65625 5.328125l6.703125 0zm82.09732 -89.0q15.1875 0 27.515625 7.203125q12.34375 7.203125 19.546875 19.734375q7.203125 12.53125 7.203125 27.921875l0 44.015625q0 4.328125 -2.875 7.203125q-2.859375 2.859375 -7.203125 2.859375q-4.328125 0 -7.203125 -2.859375q-2.859375 -2.875 -2.859375 -7.203125l0 -7.3125q-6.90625 8.484375 -16.765625 13.234375q-9.859375 4.734375 -21.3125 4.734375q-14.203125 0 -25.75 -7.109375q-11.546875 -7.109375 -18.15625 -19.640625q-6.609375 -12.53125 -6.609375 -27.921875q0 -15.390625 7.09375 -27.921875q7.109375 -12.53125 19.640625 -19.734375q12.53125 -7.203125 27.734375 -7.203125zm0 91.765625q9.859375 0 17.84375 -4.828125q8.0 -4.84375 12.53125 -13.21875q4.546875 -8.390625 4.546875 -18.859375q0 -10.453125 -4.546875 -18.9375q-4.53125 -8.484375 -12.53125 -13.3125q-7.984375 -4.84375 -17.84375 -4.84375q-9.875 0 -17.875 4.84375q-7.984375 4.828125 -12.625 13.3125q-4.625 8.484375 -4.625 18.9375q0 10.46875 4.625 18.859375q4.640625 8.375 12.625 13.21875q8.0 4.828125 17.875 4.828125zm137.93082 -91.953125q13.609375 0 24.453125 5.921875q10.859375 5.921875 16.96875 17.265625q6.125 11.34375 6.125 27.328125l0 48.546875q0 4.328125 -2.859375 7.203125q-2.859375 2.859375 -7.203125 2.859375q-4.34375 0 -7.203125 -2.859375q-2.859375 -2.875 -2.859375 -7.203125l0 -48.546875q0 -15.984375 -8.59375 -24.171875q-8.578125 -8.1875 -22.78125 -8.1875q-8.28125 0 -15.09375 3.359375q-6.8125 3.34375 -10.65625 9.078125q-3.84375 5.71875 -3.84375 12.8125l0 55.65625q0 4.328125 -2.765625 7.203125q-2.7656097 2.859375 -7.2968597 2.859375q-4.34375 0 -7.203125 -2.859375q-2.859375 -2.875 -2.859375 -7.203125l0 -134.1875q0 -4.546875 2.859375 -7.296875q2.859375 -2.765625 7.203125 -2.765625q4.53125 0 7.2968597 2.765625q2.765625 2.75 2.765625 7.296875l0 48.34375q6.3125 -6.3125 14.984375 -9.765625q8.6875 -3.453125 18.5625 -3.453125zm83.07196 11.046875q0 -4.53125 2.859375 -7.296875q2.859375 -2.765625 7.203125 -2.765625q4.53125 0 7.296875 2.765625q2.765625 2.765625 2.765625 7.296875l0 87.8125q0 4.34375 -2.765625 7.203125q-2.765625 2.859375 -7.296875 2.859375q-4.34375 0 -7.203125 -2.859375q-2.859375 -2.859375 -2.859375 -7.203125l0 -87.8125zm10.0625 -53.671875q5.328125 0 9.171875 3.84375q3.859375 3.84375 3.859375 9.171875q0 5.328125 -3.859375 9.1875q-3.84375 3.84375 -9.171875 3.84375q-5.328125 0 -9.171875 -3.84375q-3.84375 -3.859375 -3.84375 -9.1875q0 -5.328125 3.84375 -9.171875q3.84375 -3.84375 9.171875 -3.84375zm100.43683 42.421875q10.46875 0 16.375 3.15625q5.921875 3.15625 5.921875 7.890625q0 1.390625 -0.1875 1.984375q-1.78125 6.3125 -7.90625 6.3125q-0.984375 0 -2.953125 -0.390625q-7.890625 -1.390625 -12.828125 -1.390625q-14.203125 0 -22.890625 6.515625q-8.671875 6.515625 -8.671875 17.5625l0 57.625q0 4.734375 -2.46875 7.296875q-2.46875 2.5625 -7.40625 2.5625q-4.734375 0 -7.296875 -2.46875q-2.5625 -2.46875 -2.5625 -7.390625l0 -88.21875q0 -4.734375 2.5625 -7.296875q2.5625 -2.5625 7.296875 -2.5625q9.875 0 9.875 9.859375l0 3.75q5.90625 -6.90625 14.59375 -10.84375q8.6875 -3.953125 18.546875 -3.953125zm90.96393 0.390625q23.296875 0 38.6875 17.765625q1.96875 2.171875 1.96875 5.125q0 4.34375 -4.34375 7.3125q-1.96875 1.375 -4.53125 1.375q-4.546875 0 -7.703125 -3.546875q-4.9375 -5.328125 -10.765625 -7.796875q-5.8125 -2.46875 -13.3125 -2.46875q-15.1875 0 -24.65625 10.171875q-9.46875 10.15625 -9.46875 26.921875q0 10.65625 4.4375 19.046875q4.4375 8.390625 12.421875 13.125q8.0 4.734375 18.265625 4.734375q13.40625 0 21.703125 -6.90625q3.75 -2.765625 7.296875 -2.765625q2.765625 0 5.125 1.78125q3.75 3.15625 3.75 7.09375q0 2.96875 -2.359375 5.328125q-14.203125 13.234375 -35.515625 13.234375q-15.59375 0 -28.03125 -7.109375q-12.421875 -7.109375 -19.4375 -19.640625q-7.0 -12.53125 -7.0 -27.921875q0 -15.78125 6.796875 -28.3125q6.8125 -12.53125 19.046875 -19.53125q12.234375 -7.015625 27.625 -7.015625zm124.92236 0q15.1875 0 27.71875 7.203125q12.53125 7.203125 19.625 19.734375q7.109375 12.53125 7.109375 27.921875q0 15.390625 -6.609375 27.921875q-6.609375 12.53125 -18.15625 19.640625q-11.546875 7.109375 -25.75 7.109375q-11.4375 0 -21.3125 -4.734375q-9.859375 -4.75 -16.765625 -13.234375l0 53.28125q0 4.546875 -2.765625 7.296875q-2.765625 2.765625 -7.296875 2.765625q-4.34375 0 -7.203125 -2.765625q-2.859375 -2.75 -2.859375 -7.296875l0 -89.984375q0 -15.390625 7.203125 -27.921875q7.203125 -12.53125 19.53125 -19.734375q12.328125 -7.203125 27.53125 -7.203125zm0 91.765625q9.859375 0 17.84375 -4.828125q8.0 -4.84375 12.640625 -13.21875q4.640625 -8.390625 4.640625 -18.859375q0 -10.453125 -4.640625 -18.9375q-4.640625 -8.484375 -12.640625 -13.3125q-7.984375 -4.84375 -17.84375 -4.84375q-9.875 0 -17.875 4.84375q-7.984375 4.828125 -12.53125 13.3125q-4.53125 8.484375 -4.53125 18.9375q0 10.46875 4.53125 18.859375q4.546875 8.375 12.53125 13.21875q8.0 4.828125 17.875 4.828125zm181.33105 -38.671875q0 3.75 -2.5625 6.21875q-2.5625 2.453125 -6.5 2.453125l-75.0 0q2.171875 13.8125 12.53125 22.296875q10.359375 8.484375 25.359375 8.484375q5.921875 0 12.328125 -2.15625q6.421875 -2.171875 10.5625 -5.328125q2.765625 -2.171875 6.515625 -2.171875q3.75 0 5.921875 1.96875q3.546875 2.953125 3.546875 6.703125q0 3.5625 -3.15625 5.921875q-6.703125 5.328125 -16.671875 8.6875q-9.96875 3.359375 -19.046875 3.359375q-16.171875 0 -29.0 -7.0q-12.828125 -7.015625 -20.03125 -19.4375q-7.203125 -12.4375 -7.203125 -28.234375q0 -15.78125 6.796875 -28.3125q6.8125 -12.53125 18.953125 -19.53125q12.140625 -7.015625 27.53125 -7.015625q15.1875 0 26.234375 6.71875q11.0625 6.703125 16.96875 18.75q5.921875 12.03125 5.921875 27.625zm-49.125 -36.109375q-14.40625 0 -23.390625 7.890625q-8.96875 7.890625 -11.34375 21.109375l65.71875 0q-1.78125 -13.21875 -9.875 -21.109375q-8.09375 -7.890625 -21.109375 -7.890625z" fill-rule="nonzero"/></g></svg>